<svg xmlns="http://www.w3.org/2000/svg" version="1.0" width="380.000000pt" height="211.000000pt" viewBox="0 0 380.000000 211.000000" preserveAspectRatio="xMidYMid meet">
<g transform="translate(0.000000,211.000000) scale(0.050000,-0.050000)" fill="#000000" stroke="none">



<path d="M5095 2547 c61 -25 27 -86 -40 -74 -115 22 -41 -33 305 -224 229 -127 320 -189 320 -220 0 -14 11 -30 25 -36 16 -6 13 -10 -8 -11 -46 -3 -60 -174 -17 -210 16 -14 104 -60 195 -102 180 -83 181 -84 131 -120 -30 -23 -27 -28 31 -59 70 -36 172 6 413 170 44 29 152 91 240 137 88 45 194 101 235 124 163 91 422 92 653 4 22 -9 26 9 18 92 -11 107 -28 145 -52 111 -24 -35 -164 -37 -164 -3 0 36 -75 59 -86 27 -6 -17 -21 -16 -53 3 -25 15 -39 17 -32 5 13 -20 -64 -32 -155 -24 -20 2 -31 -5 -25 -15 19 -31 -66 -39 -91 -9 -17 20 -31 22 -45 8 -29 -29 -88 -26 -98 4 -6 18 -18 15 -43 -10 -19 -19 -27 -35 -18 -36 9 0 -9 -14 -39 -30 -30 -17 -55 -44 -55 -62 0 -19 -11 -27 -29 -20 -17 6 -35 3 -42 -8 -6 -10 -1 -19 11 -19 47 0 10 -86 -40 -94 -55 -8 -105 -46 -61 -46 15 0 22 -5 16 -12 -6 -6 -31 -1 -56 12 -29 16 -39 17 -30 2 8 -13 -4 -22 -31 -22 -50 0 -145 -93 -126 -123 9 -14 1 -15 -25 -1 -26 14 -50 14 -75 0 -29 -16 -34 -15 -22 4 9 14 3 32 -12 42 -19 11 -33 5 -42 -18 -12 -30 -15 -28 -27 10 -13 43 -112 95 -169 88 -23 -3 -24 0 -4 14 21 14 20 23 -5 43 -17 14 -31 38 -31 53 0 16 -13 28 -30 28 -30 0 -39 23 -31 78 2 15 -14 47 -37 70 -23 23 -64 68 -91 99 -27 31 -71 58 -98 60 -27 2 -45 9 -41 17 5 7 -7 23 -27 34 -19 12 -28 21 -19 21 8 1 -1 19 -22 41 -27 29 -58 39 -106 35 -58 -4 -69 2 -75 42 -5 35 -16 44 -44 37 -26 -7 -42 3 -51 33 -14 45 -45 73 -78 71 -11 -1 -9 -6 5 -11z m1756 -579 c-30 -22 -43 -21 -81 8 -42 31 -43 35 -10 48 20 7 42 23 50 36 9 15 24 8 45 -21 29 -41 28 -47 -4 -71z"/>
<path d="M4930 2525 c-64 -14 -77 -39 -25 -49 26 -5 58 2 71 16 28 31 9 44 -46 33z"/>
<path d="M4439 2458 c-11 -21 -27 -36 -35 -35 -36 8 -125 -30 -118 -50 13 -37 98 -13 176 49 40 31 78 51 85 44 7 -7 13 -3 13 8 0 37 -100 23 -121 -16z"/>

<path d="M4387 2281 c-177 -88 -346 -169 -375 -180 -62 -24 -19 -90 71 -107 36 -6 32 -9 -18 -11 -36 -2 -65 7 -65 18 0 12 -14 8 -31 -10 -56 -55 -149 -37 -175 35 -11 29 -21 32 -54 14 -51 -28 -51 -49 3 -73 36 -16 31 -19 -33 -19 -57 0 -86 -13 -118 -51 -57 -70 -207 -162 -222 -137 -7 11 -34 20 -60 20 -26 0 -53 8 -59 18 -6 11 -59 34 -116 53 -58 19 -112 47 -121 62 -9 15 -34 27 -56 27 -22 0 -63 15 -91 34 -29 19 -105 40 -171 48 -71 8 -135 29 -159 51 -178 160 -1065 -158 -1067 -382 0 -16 -9 -36 -18 -45 -11 -9 -12 -5 -4 9 10 17 -1 25 -34 25 -59 0 -174 39 -174 59 0 34 30 39 72 11 29 -18 51 -22 58 -10 7 11 -2 26 -19 32 -17 7 -31 21 -31 31 0 11 10 13 23 5 14 -9 18 -5 9 9 -9 15 -26 17 -48 5 -84 -45 -384 28 -384 93 0 14 -17 25 -39 25 -21 0 -45 10 -53 23 -10 16 8 19 64 10 l78 -12 -79 30 c-44 16 -87 41 -96 54 -11 16 -13 8 -5 -20 7 -26 4 -45 -9 -45 -11 0 -21 14 -21 31 0 16 -13 35 -30 42 -16 6 -25 18 -20 27 5 9 -3 21 -19 27 -17 6 -35 2 -42 -9 -8 -13 -22 -12 -40 3 -15 12 -43 18 -63 13 -28 -7 -26 -10 9 -12 47 -2 60 -30 24 -53 -14 -8 -8 -23 15 -40 37 -28 -5 -42 -92 -30 -21 3 -20 -4 5 -29 49 -48 -7 -157 -58 -114 -29 24 -166 68 -289 94 -143 29 -89 67 122 84 76 7 144 20 150 29 15 24 83 21 95 -3 5 -12 8 -10 5 4 -3 13 -31 31 -64 39 -32 9 -107 61 -167 116 -60 56 -125 101 -145 101 -50 0 -45 -27 9 -50 25 -11 48 -40 51 -65 7 -46 -7 -53 -91 -46 -28 2 -45 -7 -45 -26 0 -16 -11 -34 -25 -40 -20 -8 -20 -10 0 -11 42 -3 28 -42 -15 -42 -63 0 -54 -92 10 -108 28 -7 50 -22 50 -32 0 -11 49 -20 109 -20 72 0 119 -11 140 -31 17 -18 31 -22 31 -10 0 60 145 -53 176 -138 27 -75 -29 -91 -308 -91 l-242 0 -2 -57 -1 -58 123 18 c460 64 773 15 954 -151 50 -45 132 -101 184 -124 55 -25 112 -70 140 -110 52 -79 50 -78 346 -107 288 -29 499 -51 1080 -113 306 -33 522 -47 597 -38 71 7 112 5 105 -6 -30 -49 941 -97 1336 -67 387 30 1330 198 1528 273 30 11 -68 219 -130 274 -78 71 -268 68 -410 -6 -69 -36 -169 -87 -221 -113 -52 -25 -95 -55 -95 -66 0 -10 -14 -19 -31 -19 -78 0 -182 -63 -134 -81 49 -19 54 -34 27 -77 -21 -33 -69 -9 -55 28 6 15 -3 32 -20 38 -44 17 -44 16 -32 -31 10 -40 -31 -84 -85 -89 -11 -1 -46 -12 -77 -25 -32 -13 -72 -21 -90 -18 -18 3 -31 -6 -28 -20 3 -17 -24 -25 -90 -24 -87 1 -92 3 -55 29 103 73 119 88 105 102 -8 8 -37 3 -63 -11 -27 -14 -57 -20 -69 -13 -11 7 -66 14 -122 15 -133 3 -137 17 -33 113 89 82 199 117 314 101 59 -9 83 -129 29 -149 -35 -14 -42 -48 -10 -48 12 0 87 42 165 94 79 52 225 135 324 185 l180 91 -2 100 c-7 270 -231 500 -346 355 -17 -23 -68 -60 -112 -83 -78 -41 -67 -54 38 -43 26 3 34 -5 26 -25 -15 -41 24 -74 90 -74 57 0 76 -29 31 -47 -14 -5 -5 -11 20 -11 26 -1 43 9 40 23 -3 15 16 25 45 25 38 0 52 -12 57 -50 4 -27 16 -61 27 -75 16 -19 10 -25 -20 -25 -31 0 -38 -10 -29 -42 9 -36 4 -40 -30 -29 -29 9 -56 -2 -92 -38 -30 -30 -74 -51 -106 -51 -43 0 -50 -5 -31 -24 35 -35 29 -62 -10 -47 -19 7 -28 6 -20 -2 8 -8 -5 -26 -29 -39 -43 -23 -97 1 -97 43 0 53 -154 318 -203 348 -67 41 -57 60 89 163 53 37 123 87 155 111 33 24 104 49 159 57 55 8 100 20 100 27 0 22 -194 123 -237 123 -46 0 -128 -76 -111 -103 6 -9 -5 -17 -23 -17 -21 0 -29 -11 -22 -29 8 -20 1 -25 -21 -17 -20 8 -28 5 -20 -8 7 -11 -6 -38 -30 -58 -24 -21 -36 -27 -28 -13 9 16 4 21 -17 13 -17 -7 -26 -20 -20 -30 6 -10 -3 -18 -21 -18 -19 0 -27 -9 -19 -22 9 -15 1 -18 -26 -10 -67 22 -143 -54 -103 -101 46 -53 68 -149 30 -135 -19 7 -32 -8 -41 -48 -22 -101 -90 -146 -234 -155 -228 -15 -329 -31 -382 -58 -36 -19 -50 -20 -43 -4 9 25 -131 95 -158 79 -9 -6 -1 -27 17 -48 27 -29 29 -43 11 -66 -30 -35 10 -68 43 -35 12 12 34 14 53 5 68 -35 192 -48 166 -17 -27 33 -12 55 38 55 46 0 71 -40 37 -61 -35 -21 178 -225 221 -211 119 38 119 38 141 -20 12 -32 30 -62 39 -68 10 -6 -31 -12 -91 -13 -96 -1 -109 3 -109 39 0 36 -9 38 -101 28 -70 -9 -96 -6 -87 10 9 14 -6 17 -49 9 -35 -7 -90 -19 -123 -25 -52 -11 -59 -8 -47 22 12 33 10 33 -36 3 -104 -69 -216 2 -217 137 -1 71 -4 76 -28 45 -22 -30 -26 -13 -28 114 -1 176 -53 312 -148 391 -59 50 -61 57 -39 119 13 37 23 92 23 123 0 62 19 70 274 119 226 43 586 -37 586 -130 0 -15 18 -22 45 -18 29 5 70 -14 115 -52 69 -59 69 -60 20 -62 l-50 -2 47 -18 c75 -30 113 22 63 86 -21 27 -33 55 -26 62 7 7 2 13 -11 13 -12 0 -23 -10 -23 -23 0 -13 -7 -17 -15 -9 -8 9 1 27 20 41 31 22 20 27 -82 39 -114 13 -240 70 -158 71 19 1 35 10 35 21 0 26 -26 26 -53 -1 -13 -13 -37 -14 -69 -1 -43 17 -43 20 -8 22 56 4 -61 58 -130 59 -27 1 -63 10 -79 20 -41 26 11 86 62 70 50 -16 90 10 54 35 -20 15 -17 17 11 8 23 -8 46 0 61 20 25 34 111 24 111 -13 0 -11 9 -19 21 -19 13 0 13 14 -2 42 -16 30 -16 39 -1 29 12 -7 22 -3 22 9 0 12 9 17 20 10 11 -7 14 1 8 19 -13 32 -8 34 95 39 45 1 66 -8 73 -33 5 -19 21 -35 36 -35 16 0 28 -8 28 -18 0 -10 19 -13 43 -7 27 7 49 -1 61 -22 25 -45 55 -42 43 4 -7 23 3 42 24 51 42 16 95 -25 80 -62 -6 -16 -2 -23 9 -16 12 7 20 -13 20 -48 0 -65 -165 -252 -233 -266 -38 -7 -51 -57 -26 -98 13 -21 20 -19 31 11 16 41 80 111 101 111 7 0 34 24 61 52 26 29 54 46 62 39 8 -8 -2 -26 -21 -40 -42 -30 -45 -51 -8 -51 14 0 38 23 53 50 15 28 34 50 43 50 62 0 74 114 26 250 -101 291 -216 303 -682 71z m503 27 c0 -52 -177 -90 -220 -46 -39 39 -10 79 72 97 86 18 148 -3 148 -51z m-4221 -275 c16 5 33 -7 40 -29 12 -38 145 -144 180 -144 9 0 33 -19 54 -43 23 -27 74 -49 136 -59 56 -9 120 -34 145 -58 79 -74 174 -123 212 -111 20 6 99 -11 175 -39 77 -27 140 -50 141 -50 19 0 47 -127 37 -166 -32 -128 -316 -161 -438 -51 -10 9 -35 17 -54 17 -19 0 -42 12 -51 28 -9 15 -82 70 -163 122 -132 85 -146 100 -139 150 l8 55 -126 -10 c-191 -16 -328 134 -214 233 31 27 48 59 42 79 -5 18 -14 47 -18 63 -5 17 -6 24 -1 16 4 -8 20 -9 34 -3z m1509 5 c42 -15 61 -33 54 -50 -6 -16 -2 -28 9 -28 10 0 19 7 19 15 0 8 70 16 155 17 111 2 135 -2 85 -12 -38 -8 -54 -16 -35 -17 40 -3 46 -44 11 -79 -19 -19 -18 -24 1 -24 14 0 20 -9 13 -20 -7 -11 -2 -20 10 -20 12 0 19 16 16 35 -5 29 10 35 98 36 57 1 100 -5 95 -13 -9 -15 39 -41 102 -55 6 -2 1 -21 -11 -43 -17 -31 -15 -37 7 -28 15 5 33 -4 40 -22 22 -56 55 -10 44 60 -11 69 39 119 61 61 7 -16 25 -23 43 -16 23 8 27 4 17 -17 -8 -15 -1 -11 17 11 27 34 39 30 34 -12 -3 -21 97 -40 139 -26 21 6 38 2 38 -10 0 -11 -9 -21 -20 -21 -11 0 -20 -13 -20 -30 0 -16 9 -30 20 -30 27 0 24 -23 -7 -64 -31 -41 -148 -19 -204 38 -28 28 -35 28 -51 4 -15 -24 -21 -24 -38 2 -16 25 -19 22 -20 -12 0 -45 -99 -84 -234 -92 -57 -4 -73 -22 -24 -28 60 -9 64 -12 28 -28 -45 -19 -249 -3 -281 22 -11 9 -65 16 -120 16 -152 1 -216 26 -238 93 -26 80 -21 76 -122 80 -102 3 -115 10 -97 56 15 39 147 46 184 9 23 -23 34 -2 26 49 -1 8 10 15 26 15 15 0 38 14 52 30 14 17 42 30 62 30 21 0 38 9 38 20 0 45 -154 9 -355 -82 -109 -50 -181 -46 -141 7 14 19 53 37 86 38 33 2 80 22 104 43 27 24 60 35 86 28 27 -7 39 -3 34 13 -18 52 77 81 164 51z m487 -88 c-7 -30 -70 -24 -81 7 -6 18 6 24 39 20 26 -4 45 -16 42 -27z m855 -216 c0 -101 -218 -342 -328 -362 -39 -8 -72 -22 -72 -32 0 -21 -77 1 -198 56 -105 48 -79 72 98 89 151 15 350 115 229 115 -18 0 -25 10 -18 22 10 15 20 15 35 0 35 -35 58 -25 44 18 -19 60 3 82 61 60 44 -17 53 -13 69 30 24 64 80 66 80 4z m1961 -15 c89 -47 16 -148 -97 -135 -75 8 -90 107 -20 135 61 25 72 25 117 0z m-3409 -151 c236 -157 221 -190 -42 -99 -77 26 -176 67 -219 90 -44 22 -114 41 -155 41 -50 0 -76 9 -76 27 0 111 288 77 492 -59z m2788 -9 c0 -8 -13 -20 -29 -26 -20 -8 -25 -1 -17 21 9 22 5 28 -11 18 -15 -9 -23 1 -23 30 0 43 1 43 40 8 22 -20 40 -43 40 -51z m-1300 -104 c0 -19 -7 -35 -15 -35 -9 0 -18 -42 -20 -93 -4 -98 13 -110 23 -15 12 111 132 120 132 10 0 -33 -9 -65 -20 -72 -13 -8 -9 -24 11 -43 18 -19 25 -47 18 -72 -10 -29 -6 -36 11 -25 16 10 22 6 17 -10 -9 -27 -24 -32 -164 -54 -61 -9 -70 -16 -45 -30 18 -10 52 -12 75 -5 28 9 38 6 28 -9 -7 -12 -27 -22 -43 -22 -17 0 -25 -8 -19 -18 6 -10 31 -14 56 -8 36 8 39 5 15 -12 -46 -33 -94 -26 -105 16 -8 29 -23 35 -67 27 -50 -10 -52 -13 -17 -27 33 -13 30 -15 -17 -17 -40 -1 -52 6 -41 24 10 17 4 16 -19 -2 -30 -25 -34 -22 -37 20 -7 107 -3 192 11 214 8 13 5 23 -6 23 -12 0 -27 -22 -33 -48 -24 -94 -96 -132 -248 -132 -155 0 -209 -33 -76 -46 47 -5 24 -6 -50 -3 -85 4 -146 18 -165 36 -16 16 -40 33 -54 38 -34 11 117 171 204 214 52 27 101 34 190 27 88 -6 112 -3 90 12 -23 16 -9 21 58 18 78 -2 96 6 155 71 37 40 85 73 107 73 28 0 36 10 27 35 -9 30 -7 30 11 5 12 -16 22 -46 22 -65z m-1230 45 c-7 -11 -3 -20 8 -20 11 0 24 7 29 15 22 35 193 2 193 -36 0 -25 10 -34 30 -26 17 6 30 1 30 -11 0 -12 -13 -22 -30 -22 -16 0 -30 -9 -30 -20 0 -25 32 -26 77 -2 25 14 48 7 84 -21 27 -22 38 -35 24 -28 -15 8 -25 1 -25 -18 0 -18 -17 -31 -40 -31 -22 0 -40 -13 -40 -30 0 -17 -18 -30 -41 -30 -23 0 -36 -9 -29 -20 7 -11 -12 -21 -44 -23 -47 -2 -49 -4 -11 -11 25 -5 41 -16 35 -25 -5 -9 12 -22 39 -29 l49 -12 -46 -50 c-53 -57 -153 -67 -192 -20 -22 26 -12 30 68 30 50 0 92 9 92 20 0 39 -217 15 -227 -25 -5 -19 -19 -35 -32 -35 -13 0 -17 19 -9 50 14 58 2 58 -252 0 -231 -54 -258 -56 -290 -30 -51 42 -34 103 50 175 44 37 76 76 70 85 -27 44 35 32 154 -30 188 -99 304 -122 355 -71 22 22 78 59 125 84 100 52 57 80 -45 29 -62 -30 -62 -30 -90 38 -16 37 -49 82 -74 99 -38 27 -40 35 -15 51 39 25 66 25 50 0z m450 -42 c0 -10 -16 -19 -35 -19 -31 -2 -30 -4 4 -17 24 -9 30 -20 16 -29 -25 -15 -85 4 -85 27 0 8 -20 22 -45 29 l-45 15 50 14 c59 17 140 5 140 -20z m2140 -52 c0 -16 18 -34 40 -40 23 -6 40 -27 40 -49 0 -52 -100 -145 -127 -118 -13 13 -28 8 -44 -14 -22 -30 -34 -31 -94 -10 -37 14 -99 25 -136 25 -52 1 -62 5 -39 20 17 11 54 20 84 20 36 0 58 13 66 40 7 22 21 40 31 40 11 0 19 13 19 28 0 37 101 110 134 98 14 -6 26 -24 26 -40z m-2635 -48 c19 -20 35 -41 35 -47 0 -23 -102 -10 -111 15 -6 16 -34 23 -75 18 -54 -6 -65 -1 -65 31 0 51 163 38 216 -17z m3884 -97 c66 -73 -165 -162 -236 -91 -18 18 -42 27 -53 20 -35 -21 -22 -46 35 -67 30 -11 41 -21 25 -21 -17 -1 -64 -25 -105 -53 -60 -40 -75 -44 -75 -19 0 28 -6 28 -59 1 -81 -43 -93 -39 -88 24 2 30 4 70 5 89 2 41 127 81 197 63 29 -7 60 1 84 22 75 68 222 85 270 32z m-1526 -121 c26 -22 36 -38 22 -35 -13 3 -45 -20 -70 -50 -30 -37 -71 -58 -125 -66 -58 -8 -72 -5 -50 10 26 18 26 20 -3 21 -36 0 -70 103 -47 140 24 38 221 24 273 -20z m941 -34 c-20 -7 -20 -16 -2 -38 27 -32 -12 -95 -50 -81 -12 4 -38 -1 -57 -10 -26 -14 -35 -10 -35 12 0 17 10 31 21 31 12 0 16 9 10 19 -12 19 81 80 119 79 11 -1 8 -6 -6 -12z m635 -14 c14 -17 15 -33 4 -40 -29 -18 -83 8 -83 40 0 36 48 36 79 0z"/>
<path d="M2320 1860 c50 -8 77 -15 62 -17 -16 -2 -24 -8 -18 -13 15 -15 76 11 76 32 0 10 -47 17 -105 15 l-105 -3 90 -14z"/>


<path d="M4210 2325 c-22 -5 -44 -17 -50 -25 -20 -32 -217 -155 -268 -168 -42 -10 -76 -52 -43 -52 34 0 411 224 411 245 0 8 -2 14 -5 13 -3 -2 -23 -7 -45 -13z"/>


<path d="M4365 2104 c-25 -4 -41 -15 -35 -24 6 -9 33 -13 60 -8 36 6 50 0 50 -23 0 -17 9 -26 19 -20 52 33 -17 88 -94 75z"/>
<path d="M960 1911 c0 -29 20 -32 153 -22 192 13 216 31 42 31 -72 0 -146 5 -163 12 -21 8 -32 1 -32 -21z"/>
<path d="M7440 1850 c16 -19 17 -30 4 -30 -12 0 -27 9 -34 20 -7 11 -23 20 -36 20 -18 -1 -18 -4 0 -16 44 -28 7 -99 -58 -112 -104 -21 -155 -13 -196 28 -25 25 -41 31 -41 15 -1 -14 -10 -7 -20 15 -17 37 -18 37 -14 2 3 -21 23 -48 45 -60 22 -12 46 -30 53 -40 7 -9 22 -11 33 -4 11 7 25 1 31 -13 8 -20 10 -20 11 0 1 14 16 25 34 25 20 0 28 -11 21 -29 -6 -17 -2 -35 9 -42 11 -7 26 7 32 31 10 38 22 43 79 33 69 -11 84 2 45 41 -14 14 -15 26 -1 34 11 7 26 -6 33 -28 7 -22 23 -40 36 -41 13 0 6 -15 -16 -32 -32 -26 -33 -30 -6 -21 44 15 96 -54 81 -107 -5 -22 0 -39 13 -39 55 0 -18 322 -83 363 -46 30 -83 21 -55 -13z"/>
<path d="M4873 1830 c-7 -16 -26 -30 -42 -30 -17 0 -31 -9 -31 -20 0 -11 5 -20 11 -20 22 0 109 65 109 82 0 29 -35 20 -47 -12z"/>
<path d="M3725 1759 c-25 -10 -45 -32 -45 -48 0 -17 -10 -31 -23 -31 -13 0 -18 -6 -10 -13 7 -7 29 1 48 18 19 17 52 34 74 38 21 4 37 16 36 27 -3 27 -28 30 -80 9z"/>
<path d="M4480 1632 c0 -16 -5 -43 -12 -60 -13 -35 7 -41 49 -14 17 11 22 33 14 60 -15 47 -51 57 -51 14z"/>
<path d="M4064 1489 c15 -15 195 -17 210 -2 7 7 -40 13 -104 13 -64 0 -112 -5 -106 -11z"/>
<path d="M7500 1480 c0 -12 -31 -36 -70 -54 -38 -18 -70 -43 -71 -55 -2 -65 -139 -110 -335 -110 -107 -1 -221 -2 -254 -4 -133 -7 -175 2 -163 33 7 18 1 30 -15 30 -15 0 -43 24 -62 53 -26 39 -38 46 -51 26 -11 -18 -25 -20 -42 -7 -15 10 -40 17 -57 16 -16 -2 -43 -4 -58 -6 -16 -1 61 -58 170 -126 109 -68 201 -131 205 -141 7 -16 275 -10 718 17 l185 12 0 89 0 90 -83 -71 c-86 -74 -131 -82 -68 -13 20 22 28 49 20 63 -11 17 -6 21 14 13 35 -13 110 109 88 143 -17 28 -71 29 -71 2z"/>
<path d="M4640 1460 c0 -11 9 -20 21 -20 12 0 10 -12 -5 -28 -16 -18 -33 -22 -45 -10 -34 33 -80 23 -51 -12 44 -53 185 14 150 71 -16 25 -70 25 -70 -1z"/>
<path d="M3840 1440 c0 -11 9 -20 20 -20 11 0 20 -13 20 -30 0 -33 51 -41 69 -11 6 10 -7 24 -29 31 -22 7 -40 21 -40 31 0 11 -9 19 -20 19 -11 0 -20 -9 -20 -20z"/>
<path d="M325 1305 c1 -30 5 -44 10 -30 4 14 21 25 36 25 17 0 23 -12 16 -32 -9 -21 -29 -28 -63 -22 -28 5 -74 0 -101 -13 -38 -17 -52 -17 -58 2 -6 19 -18 19 -52 1 -23 -12 -45 -21 -48 -19 -25 16 -65 -4 -65 -34 0 -43 66 -53 524 -75 l273 -14 41 68 c46 75 45 105 -5 114 -24 5 -29 -2 -19 -28 10 -27 4 -26 -31 9 -49 49 -145 63 -104 15 12 -16 15 -33 5 -39 -27 -17 -156 24 -184 57 -14 17 -46 30 -71 30 -26 0 -52 9 -59 20 -23 37 -45 20 -45 -35z m210 -110 c34 -27 12 -55 -44 -55 -53 0 -101 48 -81 80 14 23 82 9 125 -25z"/>
<path d="M910 1149 c-22 -26 -53 -51 -70 -55 -16 -3 56 -13 160 -21 105 -8 244 -20 310 -27 107 -11 117 -9 94 19 -18 22 -48 28 -105 20 -51 -6 -79 -2 -79 12 0 15 -15 16 -49 3 -29 -11 -54 -11 -61 -1 -6 10 10 22 35 27 28 5 16 10 -31 11 -41 2 -95 16 -120 31 -40 26 -48 24 -84 -19z"/>
<path d="M6490 1138 c0 -51 7 -58 60 -57 120 3 135 25 54 76 -41 27 -63 36 -49 21 14 -14 25 -35 25 -47 -1 -14 -6 -14 -15 -1 -47 63 -75 66 -75 8z"/>
<path d="M7325 1036 c-36 -9 -65 -26 -65 -37 0 -25 34 -25 50 1 7 11 33 15 59 8 26 -6 52 -2 59 8 18 30 -31 40 -103 20z"/>
<path d="M7430 910 l-80 -28 100 12 c55 6 114 19 130 28 49 28 -59 19 -150 -12z"/>
<path d="M0 805 c0 -49 130 -64 570 -63 316 0 312 0 266 -18 -18 -8 90 -16 240 -18 235 -4 978 -74 998 -94 19 -19 -195 -37 -454 -39 -287 -2 -371 4 -780 52 -370 43 -840 31 -840 -22 0 -34 25 -39 295 -51 262 -13 888 -56 1625 -112 2411 -185 3000 -183 3940 14 83 17 176 32 207 32 38 0 48 5 30 16 -15 10 -58 12 -95 5 -48 -9 -64 -6 -54 10 20 33 -79 29 -488 -17 -340 -38 -1094 -56 -1168 -28 -55 21 -35 48 37 48 38 0 73 8 79 17 30 49 -318 55 -1218 20 -425 -16 -645 -17 -700 -3 l-80 20 95 15 c114 19 122 41 20 59 -703 121 -2525 235 -2525 157z m2150 -245 c-17 -28 77 -25 105 3 18 18 44 18 108 -1 118 -36 61 -66 -93 -49 -125 13 -248 67 -153 67 25 0 40 -9 33 -20z m1980 -50 c-11 -4 -101 -11 -200 -15 -99 -5 -157 -2 -130 6 48 14 372 23 330 9z m96 -56 c24 -5 -55 -8 -176 -7 -185 1 -194 2 -55 8 139 6 165 12 167 41 2 32 3 32 12 0 4 -18 28 -37 52 -42z m164 -74 c104 -9 -72 -11 -420 -5 -330 5 -604 13 -608 17 -15 14 843 4 1028 -12z"/>
<path d="M7540 796 c-148 -55 -315 -79 -740 -106 -608 -38 -799 -89 -455 -120 136 -12 1233 21 1250 38 4 4 4 52 1 107 -6 97 -7 99 -56 81z"/>
<path d="M5552 734 c-57 -25 -57 -25 35 -25 53 1 90 10 86 21 -10 30 -56 32 -121 4z"/>
<path d="M269 701 c-10 -10 -77 -22 -149 -26 -126 -7 -125 -7 35 -11 91 -2 165 3 165 12 0 8 38 13 85 10 65 -5 76 -1 45 13 -53 24 -157 26 -181 2z"/>
<path d="M7169 501 c-33 -8 -78 -25 -100 -39 -36 -23 -35 -24 11 -11 28 8 88 18 135 23 47 6 85 18 85 28 0 21 -43 20 -131 -1z"/>
<path d="M6063 422 c-21 -13 -20 -19 6 -29 21 -8 28 -5 19 9 -9 16 19 19 94 11 75 -7 90 -6 48 6 -82 22 -135 24 -167 3z"/>
<path d="M7390 317 c-134 -35 -313 -52 -1017 -96 -305 -18 -354 -26 -328 -53 17 -17 1537 -93 1552 -78 6 7 0 20 -15 29 -22 13 -22 18 1 27 15 6 5 12 -23 13 -40 1 -44 6 -20 21 17 11 21 20 9 20 -12 0 -31 -10 -44 -23 -32 -32 -87 -6 -72 34 10 25 29 31 80 22 37 -6 68 -4 69 3 1 8 5 39 10 69 11 66 0 66 -202 12z"/>
<path d="M0 323 c0 -14 39 -24 95 -26 l95 -3 -100 -13 c-119 -16 228 -32 933 -43 249 -5 449 -15 444 -23 -5 -8 22 -15 60 -15 43 0 73 -11 80 -30 7 -17 22 -30 34 -30 12 0 15 10 7 23 -21 34 423 3 495 -34 30 -16 87 -29 127 -29 40 0 68 -7 63 -15 -5 -8 33 -12 85 -8 51 3 123 -1 159 -11 44 -11 -32 -17 -234 -16 -164 0 -289 -7 -276 -15 13 -8 203 -13 423 -11 220 2 362 6 315 11 -150 13 -96 49 64 42 82 -3 155 1 163 9 23 23 168 16 168 -8 0 -14 -27 -17 -78 -8 -50 8 -83 5 -92 -10 -8 -13 -37 -17 -72 -10 -36 8 -58 5 -58 -8 0 -12 32 -22 70 -22 39 0 70 10 70 22 0 14 20 17 54 9 85 -22 426 -34 426 -15 0 9 -31 12 -68 8 -38 -4 -85 2 -105 13 -62 36 140 28 233 -9 63 -26 87 -27 109 -8 18 14 53 18 90 10 39 -8 61 -5 61 8 0 37 132 24 185 -18 58 -45 1398 -64 1425 -20 16 26 190 26 190 0 0 -12 77 -19 195 -18 211 1 220 8 39 28 -102 12 -114 18 -104 52 16 48 -32 49 -570 7 -367 -28 -1057 -37 -1144 -14 -56 15 -5 44 84 47 43 2 15 10 -70 21 -126 16 -717 11 -1564 -14 -289 -8 -401 9 -261 41 l65 15 -70 16 c-281 66 -2240 173 -2240 122z"/>
<path d="M70 101 c-22 -9 -47 -12 -55 -7 -8 4 -15 0 -15 -10 0 -32 343 -44 1138 -41 857 2 876 31 32 46 -264 5 -610 13 -770 19 -160 5 -308 2 -330 -7z"/>
</g>
</svg>