<svg xmlns="http://www.w3.org/2000/svg" version="1.0" width="300.000000pt" height="167.000000pt" viewBox="0 0 300.000000 167.000000" preserveAspectRatio="xMidYMid meet">
<g transform="translate(0.000000,167.000000) scale(0.050000,-0.050000)" fill="#000000" stroke="none">
<path d="M1120 2440 c-20 -13 -22 -19 -5 -20 45 0 27 -75 -20 -87 -31 -8 -45 -26 -45 -60 0 -27 7 -45 15 -40 8 5 15 -5 15 -23 0 -18 7 -28 15 -23 8 5 26 -3 39 -17 19 -21 11 -32 -37 -56 -57 -27 -136 -25 -138 3 0 7 -13 30 -29 51 -35 46 -94 11 -77 -44 9 -30 7 -30 -12 1 -23 35 -111 8 -89 -27 4 -8 -19 -29 -53 -45 -47 -24 -63 -25 -71 -6 -12 32 -147 27 -168 -6 -8 -14 -25 -21 -35 -14 -11 7 -26 -7 -32 -31 -10 -38 -15 -39 -46 -14 -30 24 -33 24 -23 -2 7 -21 -3 -31 -32 -33 -24 -1 -86 -21 -137 -45 -51 -23 -107 -42 -124 -42 -24 0 -31 -24 -31 -110 0 -60 4 -110 9 -110 5 0 108 40 228 90 507 207 884 225 1377 66 362 -118 854 -83 1276 89 366 150 506 124 891 -163 343 -256 500 -293 1119 -263 137 6 191 0 280 -33 116 -43 327 -76 635 -98 l185 -14 0 68 c-1 103 -15 111 -220 126 -328 25 -442 43 -459 70 -9 15 -27 21 -39 13 -30 -18 -106 7 -91 31 13 21 -35 16 -51 -5 -5 -7 -49 0 -97 17 -67 22 -114 25 -195 11 -100 -17 -173 3 -138 39 6 5 -3 9 -19 9 -21 0 -24 -9 -11 -33 15 -28 9 -33 -36 -30 -82 6 -87 8 -74 35 7 14 0 9 -16 -10 -33 -41 -76 -45 -113 -10 -21 20 -28 20 -35 0 -11 -30 -86 -34 -86 -5 0 11 -21 20 -48 20 -26 0 -82 15 -125 34 -42 18 -90 35 -105 38 -15 3 -42 20 -60 38 -18 18 -23 31 -12 29 43 -8 72 2 60 21 -7 11 -43 20 -81 20 -38 0 -69 9 -69 20 0 10 -24 25 -54 33 l-54 13 49 19 c59 22 199 -19 199 -58 0 -31 86 -57 132 -39 18 7 43 5 56 -5 12 -10 40 -11 62 -3 41 16 -27 37 -145 45 -25 2 -45 11 -45 19 0 9 -13 16 -30 16 -16 0 -30 9 -30 20 0 11 -13 20 -30 20 -16 0 -30 8 -30 18 0 28 -112 66 -183 61 -113 -8 -133 -1 -152 56 -13 39 -32 54 -67 55 -43 0 -49 10 -58 100 l-10 100 -24 -60 c-14 -33 -30 -85 -38 -115 -16 -71 -42 -86 -84 -50 -19 17 -61 38 -94 48 -38 12 -71 43 -90 83 -28 60 -70 93 -49 39 5 -14 -9 -36 -31 -50 -24 -15 -40 -17 -40 -5 0 11 9 20 20 20 11 0 20 9 20 20 0 11 -13 20 -30 20 -17 0 -30 -18 -30 -40 0 -22 -9 -40 -20 -40 -11 0 -20 20 -20 44 0 30 -6 38 -21 23 -22 -22 -1 -103 29 -108 10 -1 25 9 34 24 11 18 15 13 13 -16 -3 -35 -16 -43 -73 -43 -41 0 -79 -13 -93 -32 -13 -18 -38 -32 -55 -32 -17 0 -37 -9 -44 -20 -7 -11 -39 -20 -72 -20 -33 0 -56 -7 -51 -16 6 -8 -34 -13 -89 -11 -63 3 -108 -6 -127 -24 -15 -16 -34 -29 -41 -29 -7 0 -26 -13 -43 -30 -112 -112 -287 11 -287 202 0 36 -9 71 -20 78 -13 8 -20 -38 -20 -124 -1 -144 -12 -178 -60 -188 -32 -6 -157 19 -189 38 -10 6 -49 12 -86 14 -37 1 -74 11 -81 21 -8 11 -41 22 -74 26 -33 3 -98 37 -144 75 l-85 69 45 45 c24 24 51 45 59 47 8 1 25 3 36 5 12 1 15 12 8 24 -10 16 -19 14 -31 -5 -10 -15 -18 -20 -18 -11 0 8 16 40 35 70 30 47 30 51 1 28 -22 -17 -37 -19 -45 -5 -8 12 -7 21 0 21 8 0 3 13 -11 30 -13 16 -32 25 -42 19 -9 -6 -41 5 -71 25 -38 24 -56 28 -62 12 -4 -13 -21 -19 -38 -12 -25 9 -25 15 -4 28 15 10 18 17 7 17 -11 0 -33 -8 -50 -19z m172 -150 l47 -44 -55 -49 -54 -49 -45 54 c-44 53 -44 53 -4 89 21 19 40 54 41 77 2 38 4 38 12 4 6 -21 31 -58 58 -82z"/>



<path d="M820 1814 c6 -6 110 -25 230 -41 232 -31 289 -48 370 -112 28 -22 136 -63 240 -91 105 -28 258 -69 340 -92 125 -34 182 -39 340 -28 105 7 316 13 470 13 418 -1 271 34 -227 54 -449 18 -619 60 -458 113 l45 15 -46 9 c-26 5 -70 -6 -98 -25 -71 -46 -211 -28 -471 62 -113 39 -236 79 -275 90 -82 21 -475 50 -460 33z"/>
<path d="M3533 1784 c-17 -26 282 -284 328 -284 28 0 -1 34 -96 113 -74 62 -154 130 -178 152 -23 21 -48 30 -54 19z"/>
<path d="M340 1574 l-90 -41 140 -16 c338 -38 666 -25 616 25 -22 22 -149 39 -136 18 33 -54 -318 -16 -425 46 -8 5 -55 -10 -105 -32z"/>
<path d="M991 1482 c-31 -12 -21 -19 48 -30 58 -9 95 -6 109 10 16 18 15 20 -3 10 -14 -8 -25 -5 -25 7 0 24 -71 26 -129 3z"/>
<path d="M3253 1450 c5 -12 -53 -21 -148 -22 -320 -3 -737 -32 -781 -53 -34 -17 -88 -17 -211 1 -221 32 -330 30 -435 -7 -49 -17 -191 -40 -318 -52 -126 -11 -255 -28 -285 -37 -44 -14 -55 -12 -55 14 0 34 -272 23 -374 -16 -27 -10 -183 -18 -347 -18 l-299 0 0 -138 0 -138 85 9 c47 5 160 33 251 60 161 50 172 50 365 26 162 -21 230 -21 367 1 138 21 207 21 386 0 120 -14 231 -22 247 -16 16 6 -29 17 -101 25 -71 8 -184 28 -250 45 -92 23 -161 27 -300 14 -204 -18 -472 -13 -496 10 -22 22 -16 22 531 30 275 3 505 15 520 26 36 28 366 69 517 65 70 -2 197 2 281 11 105 10 156 7 166 -8 8 -13 24 -16 37 -9 23 15 194 45 194 35 0 -3 -14 -19 -31 -37 -28 -27 -28 -31 -2 -31 17 0 45 20 62 44 19 28 31 34 31 16 0 -20 6 -22 22 -6 27 27 102 9 85 -21 -8 -14 -2 -13 14 2 43 40 232 32 260 -10 21 -33 22 -33 11 0 -12 40 294 54 318 15 7 -11 22 -20 34 -20 13 0 12 11 -4 30 -38 45 8 36 50 -10 20 -22 46 -40 58 -39 12 0 -12 31 -53 70 -74 68 -79 93 -8 40 20 -16 50 -23 65 -17 15 5 28 0 28 -13 0 -13 7 -19 15 -14 8 5 58 2 110 -6 93 -14 256 12 289 47 9 9 -60 13 -154 7 -128 -7 -161 -4 -133 13 112 68 108 73 -52 67 -113 -3 -153 1 -147 18 7 18 -48 23 -207 20 -134 -2 -213 -11 -208 -23z"/>
<path d="M4752 1322 c-124 -13 -114 -37 28 -70 55 -13 260 26 260 49 0 38 -62 43 -288 21z"/>
<path d="M1995 1214 c-153 -23 -186 -61 -40 -45 211 22 353 29 321 15 -19 -8 73 -15 204 -15 132 -1 236 2 232 6 -50 50 -486 73 -717 39z"/>
<path d="M5080 1219 c-98 -11 -91 -13 66 -16 105 -2 172 5 165 16 -12 19 -51 19 -231 0z"/>
<path d="M4140 1206 c-27 -4 -110 -21 -184 -37 -74 -16 -191 -29 -260 -30 -102 0 -119 -4 -88 -22 49 -28 338 -9 498 33 88 23 137 25 205 10 90 -20 233 -9 289 22 18 10 -42 18 -150 19 -99 1 -198 4 -220 7 -22 3 -62 2 -90 -2z"/>
<path d="M5475 1205 c47 -4 123 -4 170 0 47 5 9 8 -85 8 -93 0 -132 -3 -85 -8z"/>
<path d="M5827 1091 c-31 -22 -114 -31 -309 -35 l-268 -6 -16 -117 c-20 -146 -10 -157 65 -71 33 37 61 56 61 41 0 -23 6 -23 30 -3 26 22 29 20 18 -12 -11 -32 -8 -32 19 5 28 37 126 84 105 50 -5 -7 29 -11 75 -8 60 4 96 -6 131 -35 66 -56 43 -69 -140 -77 l-158 -7 0 -136 c0 -92 8 -139 25 -145 14 -5 -1 -23 -35 -43 -33 -19 -42 -28 -20 -20 159 55 250 68 415 55 l175 -13 0 89 c0 49 -11 100 -24 113 -16 16 -17 24 -2 24 15 0 23 66 24 190 l2 190 -65 0 c-37 0 -85 -13 -108 -29z m125 -116 c-8 -58 -19 -157 -26 -221 -12 -117 -46 -180 -46 -85 0 45 -6 50 -50 39 -41 -10 -50 -5 -50 29 0 58 38 74 71 30 26 -35 28 -33 28 19 1 48 -5 55 -39 44 -44 -14 -51 17 -26 109 13 48 14 48 38 -20 l25 -69 1 115 c2 104 6 115 45 115 40 0 42 -7 29 -105z m-265 -221 c31 -22 22 -28 -74 -45 -89 -16 -106 -15 -98 7 21 55 120 77 172 38z"/>
<path d="M4850 1070 l60 -26 -90 -11 c-309 -38 -414 -35 -315 8 32 14 6 17 -95 8 -77 -7 -284 -24 -460 -38 -176 -14 -288 -28 -250 -30 109 -6 169 -38 75 -40 -41 0 -75 -10 -75 -22 0 -21 81 -59 102 -47 13 7 138 -122 138 -141 0 -6 -62 -11 -137 -11 l-138 0 -12 62 c-7 35 -13 84 -13 110 0 42 -9 48 -75 48 -110 1 -175 21 -142 44 18 13 -12 15 -83 8 -60 -6 -132 -12 -160 -14 -51 -1 122 -46 275 -70 350 -55 -449 -115 -1225 -91 -226 7 -760 -51 -879 -96 -22 -8 122 -21 320 -28 197 -8 409 -18 469 -23 l110 -9 -84 24 c-156 47 -116 58 187 51 167 -3 299 -13 294 -21 -5 -8 8 -15 30 -15 22 0 43 9 46 20 6 17 323 0 527 -29 33 -4 148 -19 255 -33 123 -16 186 -31 170 -42 -16 -11 4 -17 55 -15 44 2 134 2 200 0 l120 -2 -50 -42 c-45 -37 -497 -44 -559 -8 -23 13 -381 39 -561 40 -104 1 -201 9 -215 18 -14 8 -72 15 -130 15 -58 0 -141 0 -185 1 -116 2 -271 -25 -258 -46 6 -9 102 -17 214 -17 228 0 790 -27 1306 -62 l341 -24 152 51 c138 46 1078 70 1257 31 20 -5 28 27 32 127 l6 133 -115 -28 c-63 -16 -149 -35 -190 -41 -66 -11 -75 -19 -75 -70 0 -31 -9 -57 -20 -57 -11 0 -20 22 -20 48 0 27 -9 52 -19 55 -11 4 -24 46 -30 93 -8 61 -4 82 11 73 16 -10 20 11 15 68 -7 76 -4 83 40 83 46 0 47 -4 39 -130 -4 -71 -1 -130 7 -130 17 0 77 116 77 149 0 12 28 46 61 76 92 80 63 95 -177 93 -195 -1 -209 -4 -154 -28z m-461 -115 c38 -185 29 -349 -18 -340 -63 12 -83 121 -51 274 24 116 53 143 69 66z m129 -157 c2 -81 -9 -100 -50 -84 -28 10 -24 135 7 236 16 49 39 -34 43 -152z m-495 55 c-7 -104 2 -107 89 -30 42 38 148 -19 148 -80 0 -16 -274 -43 -297 -30 -40 23 -23 242 19 239 43 -2 46 -9 41 -99z m749 27 c16 0 40 -25 53 -55 14 -30 38 -65 55 -78 41 -32 -91 -56 -215 -39 -113 15 -110 12 -84 86 22 63 89 110 136 95 14 -5 39 -9 55 -9z m428 -190 c0 -30 -36 -60 -53 -44 -6 6 -5 30 3 53 14 44 50 38 50 -9z"/>
<path d="M1890 1002 c-38 -8 -51 -18 -36 -28 35 -22 900 -34 1006 -13 84 16 81 16 -40 11 -71 -3 -265 6 -430 20 -324 29 -407 30 -500 10z"/>
<path d="M395 916 c31 -16 64 -16 110 -1 62 20 60 21 -45 22 -93 0 -103 -3 -65 -21z"/>
<path d="M762 932 c4 -5 85 -18 178 -29 94 -11 229 -30 300 -42 79 -13 177 -15 250 -5 119 16 118 16 -110 31 -126 8 -266 23 -310 33 -79 19 -325 28 -308 12z"/>
<path d="M144 849 c23 -23 119 -29 152 -10 26 15 11 20 -64 20 -54 1 -94 -4 -88 -10z"/>
<path d="M670 847 c-22 -5 -106 -22 -187 -39 -80 -18 -143 -35 -139 -39 4 -4 93 10 197 31 104 22 239 38 299 36 87 -2 93 -4 30 -9 -155 -13 -461 -72 -514 -99 -76 -39 -144 -37 -76 2 66 38 34 38 -40 0 -53 -27 -97 -100 -74 -123 6 -6 16 9 24 31 7 23 25 42 41 42 18 0 23 -13 16 -35 -11 -32 -10 -32 16 1 18 23 73 42 157 54 175 26 180 25 181 -15 1 -28 5 -26 19 9 23 56 184 85 248 46 37 -24 39 -23 16 5 -46 56 79 68 173 17 77 -42 69 -12 -13 45 -75 52 -236 69 -374 40z"/>
<path d="M720 518 c50 -10 131 -22 180 -28 50 -5 122 -19 160 -30 135 -42 232 -42 510 -1 154 22 287 41 295 41 8 0 15 9 15 20 0 13 -220 19 -625 18 -426 -2 -596 -8 -535 -20z m738 -16 c18 -12 -6 -20 -74 -25 -98 -7 -117 9 -34 29 64 15 78 14 108 -4z"/>
<path d="M582 473 l-148 -23 -36 -150 c-20 -82 -37 -170 -37 -194 -1 -34 -17 -47 -71 -57 -69 -13 -98 -49 -41 -49 54 0 331 66 331 79 0 7 -28 15 -63 17 -90 7 -94 13 -74 117 9 51 13 98 8 103 -11 10 40 64 61 64 19 0 228 103 228 112 0 5 -2 7 -5 6 -3 -2 -72 -13 -153 -25z"/>
<path d="M2380 485 c-49 -4 -99 -17 -110 -29 -14 -15 9 -17 78 -9 54 7 188 13 298 13 110 0 197 3 192 7 -14 13 -364 27 -458 18z"/>
<path d="M0 431 c0 -45 6 -49 60 -38 l60 12 2 -107 2 -108 23 84 c23 84 53 134 53 88 0 -13 9 -19 20 -12 11 7 15 -3 8 -24 -21 -63 -77 -166 -90 -166 -8 0 -19 -23 -26 -50 -11 -43 -19 -48 -51 -30 -52 27 -62 25 -48 -11 9 -23 35 -29 102 -25 l90 6 107 200 107 200 -125 13 c-261 26 -294 23 -294 -32z"/>
<path d="M4215 461 c117 -51 621 -78 795 -42 64 13 35 17 -140 21 -121 2 -247 7 -280 11 -209 23 -416 28 -375 10z"/>
<path d="M627 375 c6 -25 17 -93 25 -152 12 -96 18 -105 56 -95 23 6 76 12 117 12 70 0 75 4 75 61 0 36 8 56 20 49 11 -7 20 -35 20 -63 0 -39 8 -48 32 -39 17 7 98 12 180 12 l148 0 0 55 c0 52 -5 55 -95 57 -52 1 -196 35 -320 75 -265 86 -273 87 -258 28z"/>
<path d="M5240 398 c0 -7 -100 -24 -222 -38 -122 -14 -250 -33 -285 -41 -115 -27 93 -21 357 11 132 16 346 29 476 29 170 1 232 7 222 24 -8 14 -54 18 -126 12 -61 -5 -182 -4 -267 3 -85 7 -155 7 -155 0z"/>
<path d="M1730 379 c142 -22 249 -20 140 2 -44 9 -116 16 -160 15 -78 -1 -78 -2 20 -17z"/>
<path d="M1510 310 c-11 -4 -54 -12 -95 -19 -136 -23 -111 -131 30 -131 58 0 124 -6 147 -12 34 -9 45 -1 52 39 8 43 2 52 -42 58 l-52 7 55 24 c30 12 55 28 55 34 0 11 -117 11 -150 0z"/>
<path d="M2275 307 c264 -58 303 -113 140 -194 -110 -55 -99 -65 35 -33 44 10 201 29 350 42 360 30 410 55 115 57 -478 2 -142 70 455 91 601 21 441 41 -325 41 -432 -1 -778 -2 -770 -4z"/>
<path d="M5880 238 c-38 -10 -160 -23 -270 -28 -110 -4 -312 -18 -450 -29 -137 -11 -317 -20 -398 -21 -226 0 -151 -26 124 -42 287 -17 483 -58 384 -80 -96 -21 -406 -20 -420 2 -7 12 -76 15 -176 8 -90 -6 -158 -5 -150 2 7 8 45 14 85 14 39 0 75 7 80 15 18 28 -159 16 -192 -13 -20 -18 -65 -27 -111 -24 -42 3 -90 -2 -105 -12 -17 -10 -31 -9 -35 1 -3 11 -60 16 -126 12 -66 -4 -120 1 -120 10 0 9 -67 17 -150 17 -82 0 -150 -4 -150 -10 0 -23 -237 -14 -755 29 -142 12 -95 -20 70 -48 158 -26 2252 -58 2313 -35 17 7 25 27 18 51 -7 27 -21 36 -43 28 -27 -10 -29 -7 -9 17 30 37 140 48 461 47 l245 0 0 55 c0 60 -9 63 -120 34z"/>
<path d="M1700 190 l0 -50 315 1 c297 2 418 16 372 45 -43 26 -287 54 -482 54 l-205 0 0 -50z"/>
<path d="M3820 221 c-29 -8 48 -15 179 -16 126 0 247 7 270 16 51 21 -378 21 -449 0z"/>
<path d="M5730 80 c-8 -12 30 -20 100 -20 70 0 108 8 100 20 -7 11 -52 20 -100 20 -48 0 -93 -9 -100 -20z"/>
<path d="M5635 5 c69 -4 181 -4 250 0 69 4 13 7 -125 7 -137 0 -194 -3 -125 -7z"/>
</g>
</svg>