<svg viewBox="0 0 105 105" width="32" height="32">
    <defs>
	<linearGradient id="grad" gradientTransform="rotate(-45)">
	    <stop class="stop1" offset="0%" stop-color="#5C1E5C" />
	    <stop class="stop2" offset="50%" stop-color="#321939" />
	</linearGradient>
    </defs>
    <g fill="url(#grad)">
        <g xmlns="http://www.w3.org/2000/svg">
            <path d="M26.3902836,62.5853767c-2.8680496,0-5.5659924,1.1175766-7.5947647,3.1463509   c-4.1876278,4.1876221-4.1876278,11.0018997,0,15.1895294c2.0287724,2.0287704,4.7267151,3.146347,7.5947647,3.146347   c2.8693008,0,5.5672436-1.1175766,7.596014-3.146347c2.0287743-2.0281525,3.1457253-4.7254639,3.1457253-7.5947647   s-1.116951-5.5666199-3.1457253-7.5947647C31.9575272,63.7029533,29.2595844,62.5853767,26.3902836,62.5853767z"></path>
            <path d="M89.8013153,31.6922436c-0.3214493-0.5071945-0.9480896-0.7235794-1.5121994-0.5215778l-12.8367996,4.5791245   l13.80616-23.5385208c0.3001938-0.5109453,0.2101364-1.1607285-0.2163849-1.5716114   c-0.4290161-0.4108829-1.0819244-0.4721708-1.5797424-0.1544714l-29.3996925,18.859333l0.3414612-8.0769424   c0.0225143-0.527832-0.2814255-1.0150127-0.7642288-1.2270203c-0.485302-0.2132587-1.0481567-0.1056919-1.4208908,0.2670422   L15.4359102,61.0900612c-0.1138992,0.1138992-0.1942625,0.2471886-0.2563324,0.3859482   c-0.1380558,0.0619888-0.2707167,0.1417274-0.3840694,0.2550812c-6.3940115,6.3927574-6.3940115,16.7961617,0,23.1907997   c3.1970072,3.1970062,7.3958902,4.7948837,11.5947752,4.7948837s8.3990192-1.5985031,11.5960255-4.7948837   c0.1135864-0.1135864,0.1936378-0.2464828,0.2556305-0.3847733c0.1383667-0.0619888,0.271183-0.1420441,0.3847694-0.2556305   l50.9982452-50.9988708C90.0489731,32.8592262,90.121521,32.1988106,89.8013153,31.6922436z M36.8155746,82.4703522   c-0.1135864,0.1135864-0.1936378,0.2464828-0.2556305,0.3847733c-0.1382904,0.0619888-0.271183,0.1420441-0.3847733,0.2556305   c-5.393383,5.3927536-14.1726398,5.395256-19.5685253,0c-5.3946352-5.3958893-5.3946352-14.1738968,0-19.568531   c0.1138992-0.1138992,0.1942616-0.2471848,0.2563324-0.3859444c0.1380558-0.0619926,0.2707157-0.1417274,0.3840694-0.2550812   l38.4591293-38.4578781l-0.3076935,7.2564278c-0.0200119,0.4778004,0.2276421,0.9268322,0.6416512,1.1651058   c0.4127617,0.2388992,0.9268341,0.2270164,1.329586-0.0325203l26.973175-17.3021049l-12.8818359,21.961277   c-0.2726669,0.4646683-0.2251358,1.0500374,0.1175766,1.4646721c0.3452148,0.4146347,0.909317,0.5709801,1.4171371,0.3896179   l10.7942734-3.8505402L36.8155746,82.4703522z"></path>
            <path d="M33.0719757,57.5334549c0.3277054,0,0.6554108-0.1250763,0.9055672-0.3752327l19.3246269-19.3246269   c0.5003128-0.5003128,0.5003128-1.3108215,0-1.8111343c-0.5003166-0.5003166-1.3108253-0.5003166-1.8111382,0L32.1664085,55.347084   c-0.5003147,0.5003128-0.5003147,1.3108215,0,1.8111382C32.4165649,57.4083786,32.7442703,57.5334549,33.0719757,57.5334549z"></path>
            <path d="M60.102684,48.1969719L43.0882607,65.2113953c-0.5003128,0.5003204-0.5003128,1.3108292,0,1.811142   c0.2501564,0.2501526,0.5778618,0.3752365,0.9055672,0.3752365s0.6554108-0.1250839,0.9055672-0.3752365L61.9138222,50.00811   c0.5003128-0.5003128,0.5003128-1.3108215,0-1.8111382C61.4135094,47.6966591,60.6030006,47.6966591,60.102684,48.1969719z"></path>
            <path d="M61.1183205,36.1944427L44.7868271,52.5259399c-0.5003166,0.5003128-0.5003166,1.3108215,0,1.8111343   c0.2501564,0.2501564,0.5778618,0.3752365,0.9055672,0.3752365s0.6554108-0.1250801,0.9055672-0.3752365l16.3314972-16.3314972   c0.5003128-0.5003128,0.5003128-1.3108215,0-1.8111343S61.6186371,35.6941299,61.1183205,36.1944427z"></path>
            <path d="M40.4365959,56.8755417l-1.2920609,1.2914352c-0.5003128,0.5003166-0.5003128,1.311451,0,1.8117638   c0.2501564,0.2501564,0.5778618,0.3752365,0.9055672,0.3752365s0.6554146-0.1250801,0.905571-0.3752365l1.2920609-1.2914352   c0.5003128-0.4996872,0.5003128-1.3108215,0-1.8111382C41.7474174,56.3758545,40.9369087,56.3764801,40.4365959,56.8755417z"></path>
        </g>
    </g>
</svg>
